<?xml version="1.0" standalone="no"?>
<!DOCTYPE svg PUBLIC "-//W3C//DTD SVG 20010904//EN"
 "http://www.w3.org/TR/2001/REC-SVG-20010904/DTD/svg10.dtd">
<svg version="1.0" xmlns="http://www.w3.org/2000/svg"
 width="512.000000pt" height="512.000000pt" viewBox="0 0 512.000000 512.000000"
 preserveAspectRatio="xMidYMid meet">
<metadata>
Created by potrace 1.11, written by Peter Selinger 2001-2013
</metadata>
<g transform="translate(0.000000,512.000000) scale(0.100000,-0.100000)"
fill="#000000" stroke="none">
<path d="M1005 5099 c-536 -7 -538 -8 -656 -70 -83 -44 -214 -173 -256 -254
-63 -122 -64 -129 -73 -610 -11 -576 -11 -2648 0 -3215 9 -478 9 -477 67 -597
41 -85 187 -230 273 -270 112 -53 124 -54 510 -63 459 -11 2892 -11 3380 -1
356 8 367 9 438 34 97 34 155 72 239 159 79 83 112 135 144 228 20 60 22 91
30 430 10 485 10 2918 -1 3380 -9 386 -10 398 -63 510 -40 86 -185 232 -270
273 -123 59 -110 58 -692 67 -627 10 -2359 9 -3070 -1z m285 -798 c392 -60
701 -157 1055 -331 425 -210 765 -469 1097 -836 420 -465 723 -1087 838 -1724
32 -180 50 -354 50 -492 l0 -128 -349 0 -349 0 -6 63 c-30 337 -47 453 -96
641 -93 363 -298 769 -537 1066 -94 118 -319 342 -433 432 -440 349 -923 550
-1470 613 -74 8 -158 15 -186 15 -28 0 -66 3 -83 6 l-31 7 0 350 0 350 183 -6
c100 -3 243 -15 317 -26z m-250 -1192 c397 -40 840 -223 1176 -485 270 -211
504 -496 656 -799 154 -307 231 -589 253 -937 l6 -98 -354 0 -355 0 -7 73
c-12 130 -65 368 -102 462 -70 177 -156 331 -251 450 -281 352 -649 561 -1092
621 -63 8 -130 17 -147 20 l-33 5 0 355 0 354 73 -5 c39 -3 119 -11 177 -16z
m315 -1379 c138 -23 273 -128 342 -267 37 -76 37 -76 37 -203 0 -126 0 -128
-36 -202 -48 -95 -132 -182 -224 -228 -68 -35 -68 -35 -209 -35 -140 0 -141 0
-209 34 -89 44 -179 134 -226 226 -35 69 -35 69 -35 204 0 135 0 136 35 206
62 124 205 241 322 264 61 12 133 13 203 1z"/>
</g>
</svg>
